# xmcd
#
# Track frame offsets:
#	150
#	15233
#	32972
#	53829
#	71950
#	88752
#	108857
#	128143
#	142890
#	159314
#	178707
#	198481
#	215008
#
# Disc length: 3276 seconds
#
# Revision: 0
# Processed by: cddbd v1.5.1PL2 Copyright (c) Steve Scherf et al.
# Submitted via: EasyCDDAExtractor 8.2.2.1
#
DISCID=b40cca0d
DTITLE=Johnny Williams - Volum 1
DYEAR=2004
DGENRE=Blues
TTITLE0=I Didn't Want To Do It
TTITLE1=You Got What It Takes
TTITLE2=Movin On Down The Line
TTITLE3=The Same Love That Made Me Laugh
TTITLE4=Don't Give Up On Me
TTITLE5=Honky Tonk
TTITLE6=Wild Thang (All Night Long)
TTITLE7=When A Man Loves A Woman Like I Love You (I Want To Do Everything For 
TTITLE7=You)
TTITLE8=No
TTITLE9=Take Me To The River
TTITLE10=New Orleans In The Rain
TTITLE11=Crazy For Your Love
TTITLE12=The Houston Whip Honky Tonk
EXTD=www.Johnny-Williams.com\ncopyright 2004 Johnny Williams\nMo2 Music\nUPC c
EXTD=ode 8 25346 82802 2
EXTT0=
EXTT1=
EXTT2=
EXTT3=
EXTT4=
EXTT5=
EXTT6=
EXTT7=
EXTT8=
EXTT9=
EXTT10=
EXTT11=
EXTT12=
PLAYORDER=
